<svg width="18" height="18" viewBox="0 0 18 18" fill="none" xmlns="http://www.w3.org/2000/svg">
<path fill-rule="evenodd" clip-rule="evenodd" d="M4 2.43245C4 2.27684 4 2.19903 3.9491 2.15423C3.89819 2.10944 3.82244 2.11915 3.67094 2.13857C2.54965 2.28229 1.76806 2.57508 1.17157 3.17157C0 4.34315 0 6.22876 0 10C0 13.7712 0 15.6569 1.17157 16.8284C2.34315 18 4.22876 18 8 18H10C13.7712 18 15.6569 18 16.8284 16.8284C18 15.6569 18 13.7712 18 10C18 6.22876 18 4.34315 16.8284 3.17157C16.2319 2.57508 15.4504 2.28229 14.3291 2.13857C14.1776 2.11915 14.1018 2.10944 14.0509 2.15424C14 2.19903 14 2.27684 14 2.43245L14 4.5C14 5.32843 13.3284 6 12.5 6C11.6716 6 11 5.32843 11 4.5L11 2.30005C11 2.15898 11 2.08844 10.9561 2.04451C10.9123 2.00059 10.8418 2.0005 10.7009 2.00031C10.4748 2 10.2412 2 10 2H8C7.75876 2 7.52524 2 7.29912 2.00031C7.15819 2.0005 7.08773 2.00059 7.04386 2.04452C7 2.08844 7 2.15898 7 2.30005L7 4.5C7 5.32843 6.32843 6 5.50001 6C4.67158 6 4 5.32843 4 4.5L4 2.43245Z" fill="#115173" fill-opacity="0.25"/>
<path d="M5.5 0.5L5.5 4.5" stroke="#222222" stroke-linecap="round"/>
<path d="M12.5 0.5L12.5 4.5" stroke="#222222" stroke-linecap="round"/>
<circle cx="4.5" cy="8.5" r="0.5" fill="#222222"/>
<circle cx="7.5" cy="8.5" r="0.5" fill="#222222"/>
<circle cx="10.5" cy="8.5" r="0.5" fill="#222222"/>
<circle cx="13.5" cy="8.5" r="0.5" fill="#222222"/>
<circle cx="4.5" cy="11.5" r="0.5" fill="#222222"/>
<circle cx="7.5" cy="11.5" r="0.5" fill="#222222"/>
<circle cx="10.5" cy="11.5" r="0.5" fill="#222222"/>
<circle cx="13.5" cy="11.5" r="0.5" fill="#222222"/>
<circle cx="4.5" cy="14.5" r="0.5" fill="#222222"/>
<circle cx="7.5" cy="14.5" r="0.5" fill="#222222"/>
<circle cx="10.5" cy="14.5" r="0.5" fill="#222222"/>
<circle cx="13.5" cy="14.5" r="0.5" fill="#222222"/>
</svg>
