<svg width="11" height="18" viewBox="0 0 11 18" fill="none" xmlns="http://www.w3.org/2000/svg">
<path fill-rule="evenodd" clip-rule="evenodd" d="M2.2923 17C2.00029 17 1.85429 17 1.71425 16.9582C1.10029 16.7748 0.814772 16.0689 1.12859 15.5102C1.20018 15.3828 1.41792 15.1722 1.85342 14.751C3.35729 13.2965 4.2923 11.2574 4.2923 9C4.2923 6.74257 3.35729 4.70352 1.85342 3.249C1.41793 2.82779 1.20018 2.61719 1.12859 2.48976C0.814773 1.9311 1.10029 1.22522 1.71425 1.04183C1.85429 0.999999 2.00029 0.999999 2.2923 0.999999V0.999999C6.71058 1 10.2923 4.58172 10.2923 9C10.2923 13.4183 6.71058 17 2.2923 17V17Z" fill="#115173" fill-opacity="0.25"/>
<path d="M1.12859 2.48976L0.60548 2.78362L1.12859 2.48976ZM1.71425 1.04183L1.88597 1.61673L1.71425 1.04183ZM1.85342 14.751L2.27055 15.1823L1.85342 14.751ZM1.12859 15.5102L1.65171 15.8041L1.12859 15.5102ZM1.71425 16.9582L1.88597 16.3833L1.71425 16.9582ZM3.6923 9C3.6923 11.0882 2.82812 12.9736 1.43629 14.3197L2.27055 15.1823C3.88646 13.6194 4.8923 11.4266 4.8923 9L3.6923 9ZM1.4363 3.68028C2.82812 5.02644 3.6923 6.91178 3.6923 9L4.8923 9C4.8923 6.57336 3.88646 4.38061 2.27055 2.81772L1.4363 3.68028ZM2.2923 1.6C6.37921 1.6 9.6923 4.91309 9.6923 9L10.8923 9C10.8923 4.25035 7.04195 0.4 2.2923 0.399999L2.2923 1.6ZM9.6923 9C9.6923 13.0869 6.3792 16.4 2.2923 16.4L2.2923 17.6C7.04195 17.6 10.8923 13.7496 10.8923 9L9.6923 9ZM2.27055 2.81772C2.04981 2.60422 1.89458 2.45399 1.78481 2.34104C1.66273 2.21543 1.64409 2.18234 1.65171 2.1959L0.60548 2.78362C0.684682 2.92461 0.81071 3.06054 0.924271 3.17739C1.05014 3.3069 1.22154 3.47258 1.4363 3.68028L2.27055 2.81772ZM2.2923 0.399999C2.03386 0.399999 1.78569 0.394297 1.54253 0.466929L1.88597 1.61673C1.9229 1.6057 1.96673 1.6 2.2923 1.6L2.2923 0.399999ZM1.65171 2.1959C1.52623 1.97253 1.64048 1.69006 1.88597 1.61673L1.54253 0.466929C0.560094 0.76038 0.103318 1.88968 0.60548 2.78362L1.65171 2.1959ZM1.43629 14.3197C1.22154 14.5274 1.05014 14.6931 0.92427 14.8226C0.810709 14.9395 0.684681 15.0754 0.605479 15.2164L1.65171 15.8041C1.64409 15.8177 1.66273 15.7846 1.78481 15.659C1.89458 15.546 2.04981 15.3958 2.27055 15.1823L1.43629 14.3197ZM2.2923 16.4C1.96673 16.4 1.92289 16.3943 1.88597 16.3833L1.54252 17.5331C1.78569 17.6057 2.03385 17.6 2.2923 17.6L2.2923 16.4ZM0.605479 15.2164C0.103316 16.1103 0.560092 17.2396 1.54252 17.5331L1.88597 16.3833C1.64048 16.3099 1.52623 16.0275 1.65171 15.8041L0.605479 15.2164Z" fill="#222222"/>
</svg>
