<svg width="16" height="16" viewBox="0 0 16 16" fill="none" xmlns="http://www.w3.org/2000/svg">
<path fill-rule="evenodd" clip-rule="evenodd" d="M5.77706 7.9881L3.52982 7.23901L3.52981 7.23901L3.52981 7.23901C1.1766 6.45461 0 6.06241 0 5.34165C0 4.62089 1.17661 4.22869 3.52982 3.44428L12.043 0.606559C13.6988 0.0546294 14.5267 -0.221335 14.9637 0.215681C15.4007 0.652697 15.1247 1.48059 14.5728 3.13638L11.7351 11.6496L11.7351 11.6496L11.7351 11.6496C10.9507 14.0028 10.5585 15.1794 9.83772 15.1794C9.11696 15.1794 8.72476 14.0028 7.94036 11.6495L7.19128 9.40231L11.5448 5.04876C11.9354 4.65823 11.9354 4.02507 11.5448 3.63454C11.1543 3.24402 10.5211 3.24402 10.1306 3.63454L5.77706 7.9881Z" fill="#F9F7F7"/>
</svg>
