<svg width="48" height="48" viewBox="0 0 48 48" fill="none" xmlns="http://www.w3.org/2000/svg">
<path fill-rule="evenodd" clip-rule="evenodd" d="M8.27708 8.41529C9.83334 9.62825 10.4172 9.5357 13.3397 9.3486L40.8913 7.76162C41.4756 7.76162 40.9898 7.20242 40.7948 7.10949L36.2191 3.9363C35.3424 3.2833 34.1743 2.53556 31.9355 2.72257L5.25732 4.58919C4.2844 4.68174 4.09005 5.1484 4.47754 5.52241L8.27708 8.41529ZM9.93121 14.5748V42.3835C9.93121 43.8781 10.7098 44.4372 12.462 44.3447L42.7411 42.664C44.4943 42.5715 44.6895 41.5435 44.6895 40.3294V12.7073C44.6895 11.4952 44.2035 10.8415 43.1303 10.9348L11.4883 12.7073C10.3207 12.8015 9.93111 13.3619 9.93121 14.5748ZM39.8227 16.0665C40.0168 16.9072 39.8227 17.7472 38.9447 17.8416L37.4858 18.1205V38.6508C36.219 39.3038 35.051 39.6772 34.0776 39.6772C32.5193 39.6772 32.129 39.2102 30.9617 37.8112L21.4188 23.4399V37.3445L24.4385 37.9981C24.4385 37.9981 24.4385 39.6771 22.0022 39.6771L15.2858 40.0508C15.0907 39.6771 15.2858 38.7446 15.9671 38.5579L17.7198 38.0919V19.7074L15.2863 19.5203C15.0911 18.6796 15.5772 17.4674 16.9412 17.3734L24.1464 16.9075L34.0777 31.4658V18.5871L31.5456 18.3083C31.3513 17.2805 32.1291 16.5342 33.1028 16.4417L39.8227 16.0665ZM3.01735 2.06976L30.767 0.10944C34.1747 -0.170881 35.0514 0.0168951 37.1932 1.50941L46.0513 7.48178C47.5128 8.50879 48 8.78844 48 9.90799V42.6641C48 44.717 47.2204 45.9311 44.4948 46.1169L12.2693 47.9835C10.2232 48.0771 9.2495 47.7974 8.178 46.4901L1.65484 38.3712C0.486064 36.8767 0 35.7586 0 34.4506V5.33464C0 3.65598 0.779782 2.25553 3.01735 2.06976Z" fill="#C5D3DC"/>
</svg>
